<svg width="129" height="129" viewBox="0 0 129 129" fill="none" xmlns="http://www.w3.org/2000/svg">
<path d="M93.9287 0.0117188C113.382 0.504318 129 16.4283 129 36V93L128.988 93.9287C128.503 113.073 113.073 128.503 93.9287 128.988L93 129H36C16.4283 129 0.504318 113.382 0.0117188 93.9287L0 93V36C9.66449e-07 16.1178 16.1178 9.66391e-07 36 0H93L93.9287 0.0117188ZM32.75 126.844C33.8198 126.945 34.9037 127 36 127H63.75V109.99C51.6953 109.795 40.7822 104.914 32.75 97.0869V126.844ZM95.75 97.5674C87.6551 105.22 76.7536 109.932 64.75 109.996V127H93C93.9258 127 94.8428 126.96 95.75 126.888V97.5674ZM96.75 97V126.792C112.448 125.07 124.929 112.664 126.765 97H96.75ZM2.23535 97C4.05165 112.497 16.2874 124.807 31.75 126.735V97H2.23535ZM66.0771 97C65.4963 98.9736 65.0538 100.992 64.75 103.055V108.996C76.4038 108.932 86.9945 104.389 94.8926 97H66.0771ZM34.1074 97C41.8923 104.283 52.2934 108.801 63.75 108.99V103.169C63.436 101.066 62.974 99.01 62.3633 97H34.1074ZM109.994 65C109.865 77.0284 105.07 87.9362 97.3311 96H126.866C126.953 95.0114 127 94.011 127 93V65H109.994ZM2 93C2 94.011 2.04736 95.0114 2.13379 96H31.6689C23.9301 87.9362 19.1354 77.0284 19.0059 65H2V93ZM32.75 95.6748C32.8565 95.7832 32.9618 95.8927 33.0693 96H62.0449C61.6257 94.7332 61.1493 93.4843 60.6104 92.2549C58.2595 86.719 55.0364 81.9036 50.9414 77.8086C46.8464 73.7136 42.0309 70.4905 36.4951 68.1396C35.2657 67.6007 34.0168 67.1243 32.75 66.7051V95.6748ZM77.209 78.166C73.2786 82.1834 70.1332 86.8785 67.7764 92.2549C67.2543 93.4842 66.7928 94.7333 66.3867 96H95.043L77.209 78.166ZM95.75 66.7051C94.4832 67.1243 93.2343 67.6007 92.0049 68.1396C86.6284 70.4228 81.9334 73.5307 77.916 77.459L95.75 95.293V66.7051ZM102.92 65C100.817 65.314 98.7602 65.775 96.75 66.3857V95.1611C104.234 87.2917 108.864 76.6868 108.993 65H102.92ZM20.0068 65C20.1326 76.4236 24.5608 86.8122 31.75 94.624V66.3857C29.7398 65.775 27.683 65.314 25.5801 65H20.0068ZM64.1943 38.5361C61.6589 44.4313 58.1847 49.6044 53.7695 54.0195C49.3535 58.4356 44.1807 61.9463 38.2861 64.5557C44.1813 67.0911 49.3544 70.5653 53.7695 74.9805C58.1847 79.3956 61.6589 84.5687 64.1943 90.4639C66.8037 84.5693 70.3144 79.3965 74.7305 74.9805C79.1457 70.5653 84.3187 67.0911 90.2139 64.5557C84.3193 61.9463 79.1465 58.4356 74.7305 54.0195C70.3144 49.6035 66.8037 44.4307 64.1943 38.5361ZM97.3311 33C105.07 41.0638 109.865 51.9716 109.994 64H127V36C127 34.989 126.953 33.9886 126.866 33H97.3311ZM2.13379 33C2.04736 33.9886 2 34.989 2 36V64H19.0059C19.1354 51.9716 23.9301 41.0638 31.6689 33H2.13379ZM31.75 34.375C24.5606 42.1869 20.1326 52.5761 20.0068 64H25.6943C27.7576 63.6962 29.7761 63.2538 31.75 62.6729V34.375ZM96.75 62.6729C98.7239 63.2538 100.742 63.6962 102.806 64H108.993C108.864 52.3129 104.234 41.7074 96.75 33.8379V62.6729ZM32.75 62.3633C34.0167 61.9572 35.2658 61.4957 36.4951 60.9736C41.8715 58.6168 46.5657 55.4705 50.583 51.54L32.75 33.707V62.3633ZM66.3867 33C66.7928 34.2667 67.2543 35.5158 67.7764 36.7451C70.203 42.2809 73.4636 47.0964 77.5586 51.1914C81.6536 55.2864 86.4691 58.547 92.0049 60.9736C93.2342 61.4957 94.4833 61.9572 95.75 62.3633V33H66.3867ZM51.29 50.833C55.2184 46.8156 58.3272 42.1216 60.6104 36.7451C61.1493 35.5157 61.6257 34.2668 62.0449 33H33.457L51.29 50.833ZM96.75 32H126.765C124.929 16.3363 112.448 3.92948 96.75 2.20703V32ZM31.75 2.26367C16.2873 4.19187 4.05165 16.5029 2.23535 32H31.75V2.26367ZM63.75 20.0088C52.2934 20.1981 41.8923 24.7169 34.1074 32H62.3633C62.974 29.9897 63.436 27.9331 63.75 25.8301V20.0088ZM64.75 25.9443C65.0538 28.0076 65.4962 30.0261 66.0771 32H94.8926C86.9945 24.611 76.4038 20.067 64.75 20.0029V25.9443ZM36 2C34.9037 2 33.8197 2.05382 32.75 2.15527V31.9121C40.7822 24.0852 51.6956 19.2036 63.75 19.0088V2H36ZM64.75 19.0029C76.7534 19.0675 87.6552 23.7793 95.75 31.4316V2.11133C94.8429 2.03872 93.9258 2 93 2H64.75V19.0029Z" fill="black"/>
<path d="M93.9287 0.0117188C113.382 0.504318 129 16.4283 129 36V93L128.988 93.9287C128.503 113.073 113.073 128.503 93.9287 128.988L93 129H36C16.4283 129 0.504318 113.382 0.0117188 93.9287L0 93V36C9.66449e-07 16.1178 16.1178 9.66391e-07 36 0H93L93.9287 0.0117188ZM32.75 126.844C33.8198 126.945 34.9037 127 36 127H63.75V109.99C51.6953 109.795 40.7822 104.914 32.75 97.0869V126.844ZM95.75 97.5674C87.6551 105.22 76.7536 109.932 64.75 109.996V127H93C93.9258 127 94.8428 126.96 95.75 126.888V97.5674ZM96.75 97V126.792C112.448 125.07 124.929 112.664 126.765 97H96.75ZM2.23535 97C4.05165 112.497 16.2874 124.807 31.75 126.735V97H2.23535ZM66.0771 97C65.4963 98.9736 65.0538 100.992 64.75 103.055V108.996C76.4038 108.932 86.9945 104.389 94.8926 97H66.0771ZM34.1074 97C41.8923 104.283 52.2934 108.801 63.75 108.99V103.169C63.436 101.066 62.974 99.01 62.3633 97H34.1074ZM109.994 65C109.865 77.0284 105.07 87.9362 97.3311 96H126.866C126.953 95.0114 127 94.011 127 93V65H109.994ZM2 93C2 94.011 2.04736 95.0114 2.13379 96H31.6689C23.9301 87.9362 19.1354 77.0284 19.0059 65H2V93ZM32.75 95.6748C32.8565 95.7832 32.9618 95.8927 33.0693 96H62.0449C61.6257 94.7332 61.1493 93.4843 60.6104 92.2549C58.2595 86.719 55.0364 81.9036 50.9414 77.8086C46.8464 73.7136 42.0309 70.4905 36.4951 68.1396C35.2657 67.6007 34.0168 67.1243 32.75 66.7051V95.6748ZM77.209 78.166C73.2786 82.1834 70.1332 86.8785 67.7764 92.2549C67.2543 93.4842 66.7928 94.7333 66.3867 96H95.043L77.209 78.166ZM95.75 66.7051C94.4832 67.1243 93.2343 67.6007 92.0049 68.1396C86.6284 70.4228 81.9334 73.5307 77.916 77.459L95.75 95.293V66.7051ZM102.92 65C100.817 65.314 98.7602 65.775 96.75 66.3857V95.1611C104.234 87.2917 108.864 76.6868 108.993 65H102.92ZM20.0068 65C20.1326 76.4236 24.5608 86.8122 31.75 94.624V66.3857C29.7398 65.775 27.683 65.314 25.5801 65H20.0068ZM64.1943 38.5361C61.6589 44.4313 58.1847 49.6044 53.7695 54.0195C49.3535 58.4356 44.1807 61.9463 38.2861 64.5557C44.1813 67.0911 49.3544 70.5653 53.7695 74.9805C58.1847 79.3956 61.6589 84.5687 64.1943 90.4639C66.8037 84.5693 70.3144 79.3965 74.7305 74.9805C79.1457 70.5653 84.3187 67.0911 90.2139 64.5557C84.3193 61.9463 79.1465 58.4356 74.7305 54.0195C70.3144 49.6035 66.8037 44.4307 64.1943 38.5361ZM97.3311 33C105.07 41.0638 109.865 51.9716 109.994 64H127V36C127 34.989 126.953 33.9886 126.866 33H97.3311ZM2.13379 33C2.04736 33.9886 2 34.989 2 36V64H19.0059C19.1354 51.9716 23.9301 41.0638 31.6689 33H2.13379ZM31.75 34.375C24.5606 42.1869 20.1326 52.5761 20.0068 64H25.6943C27.7576 63.6962 29.7761 63.2538 31.75 62.6729V34.375ZM96.75 62.6729C98.7239 63.2538 100.742 63.6962 102.806 64H108.993C108.864 52.3129 104.234 41.7074 96.75 33.8379V62.6729ZM32.75 62.3633C34.0167 61.9572 35.2658 61.4957 36.4951 60.9736C41.8715 58.6168 46.5657 55.4705 50.583 51.54L32.75 33.707V62.3633ZM66.3867 33C66.7928 34.2667 67.2543 35.5158 67.7764 36.7451C70.203 42.2809 73.4636 47.0964 77.5586 51.1914C81.6536 55.2864 86.4691 58.547 92.0049 60.9736C93.2342 61.4957 94.4833 61.9572 95.75 62.3633V33H66.3867ZM51.29 50.833C55.2184 46.8156 58.3272 42.1216 60.6104 36.7451C61.1493 35.5157 61.6257 34.2668 62.0449 33H33.457L51.29 50.833ZM96.75 32H126.765C124.929 16.3363 112.448 3.92948 96.75 2.20703V32ZM31.75 2.26367C16.2873 4.19187 4.05165 16.5029 2.23535 32H31.75V2.26367ZM63.75 20.0088C52.2934 20.1981 41.8923 24.7169 34.1074 32H62.3633C62.974 29.9897 63.436 27.9331 63.75 25.8301V20.0088ZM64.75 25.9443C65.0538 28.0076 65.4962 30.0261 66.0771 32H94.8926C86.9945 24.611 76.4038 20.067 64.75 20.0029V25.9443ZM36 2C34.9037 2 33.8197 2.05382 32.75 2.15527V31.9121C40.7822 24.0852 51.6956 19.2036 63.75 19.0088V2H36ZM64.75 19.0029C76.7534 19.0675 87.6552 23.7793 95.75 31.4316V2.11133C94.8429 2.03872 93.9258 2 93 2H64.75V19.0029Z" fill="url(#paint0_linear_4136_644)"/>
<defs>
<linearGradient id="paint0_linear_4136_644" x1="-2.36347" y1="70.5357" x2="126.469" y2="40.888" gradientUnits="userSpaceOnUse">
<stop stop-color="#3186FF"/>
<stop offset="0.45" stop-color="#346BF1"/>
<stop offset="0.95" stop-color="#4FA0FF"/>
</linearGradient>
</defs>
</svg>
